<?xml version="1.0" standalone="no"?>
<!DOCTYPE svg PUBLIC "-//W3C//DTD SVG 20010904//EN"
 "http://www.w3.org/TR/2001/REC-SVG-20010904/DTD/svg10.dtd">
<svg version="1.0" xmlns="http://www.w3.org/2000/svg"
 width="679.000000pt" height="170.000000pt" viewBox="0 0 679.000000 170.000000"
 preserveAspectRatio="xMidYMid meet">

<g transform="translate(0.000000,170.000000) scale(0.100000,-0.100000)"
fill="white" stroke="none">
<path d="M3963 1435 c-39 -17 -107 -86 -133 -135 -82 -158 -25 -491 125 -725
l45 -70 -63 -60 c-116 -112 -274 -175 -437 -175 -95 0 -130 16 -240 107 -167
138 -242 173 -382 181 -115 6 -196 -18 -298 -89 -243 -170 -270 -182 -412
-183 -93 -1 -97 0 -135 30 -21 17 -57 61 -80 99 -42 67 -58 113 -193 545 -78
247 -143 362 -238 418 -39 22 -59 27 -117 27 -190 0 -309 -155 -534 -698 -144
-347 -205 -432 -327 -452 l-41 -6 -6 63 c-7 81 -14 97 -44 109 -13 5 -107 9
-208 9 -174 0 -185 -1 -204 -21 -25 -27 -41 -93 -41 -172 0 -70 6 -77 73 -77
31 0 31 3 12 -75 -18 -75 -18 -85 -1 -85 9 0 18 22 25 63 20 104 13 97 97 97
41 0 74 -3 74 -7 -1 -14 -28 -117 -35 -135 -5 -14 -2 -18 13 -18 17 0 22 11
32 68 17 93 25 105 39 56 6 -21 14 -58 18 -81 4 -33 10 -43 24 -43 11 0 19 1
19 3 0 1 -9 34 -20 72 -27 94 -27 95 21 95 24 0 38 4 34 10 -4 6 13 10 42 10
27 0 75 7 107 15 32 8 62 13 67 10 16 -11 89 -144 96 -175 5 -30 27 -49 39
-37 10 10 -17 80 -57 148 -22 36 -39 71 -39 77 0 7 21 38 47 70 38 47 134 228
180 341 5 14 12 21 15 15 5 -8 -67 -494 -90 -606 -8 -43 -8 -48 9 -48 13 0 20
10 23 33 3 17 24 158 46 312 40 274 49 320 56 300 3 -8 30 -237 70 -592 4 -44
9 -53 25 -53 13 0 19 7 19 21 0 30 300 1222 310 1233 5 5 11 -1 15 -15 9 -40
235 -1220 235 -1230 0 -19 28 -8 33 14 3 12 25 151 48 309 24 158 45 286 47
284 7 -7 62 -502 62 -558 0 -45 3 -58 15 -58 12 0 15 13 15 55 0 49 -42 435
-55 510 -7 40 9 20 25 -30 7 -22 26 -67 43 -100 68 -137 128 -195 223 -216 61
-14 62 -17 40 -95 -25 -88 -29 -124 -12 -124 10 0 19 19 27 58 19 89 26 92 34
14 6 -59 10 -72 24 -72 18 0 19 -8 -4 165 l-7 50 60 12 c34 6 85 22 115 36
l55 25 30 -26 c44 -39 123 -149 151 -210 14 -28 30 -52 37 -52 6 0 21 24 32
52 11 29 43 116 72 193 76 200 80 209 91 198 13 -13 99 -292 99 -323 0 -14 6
-47 14 -75 l13 -50 39 64 c44 72 189 250 210 258 7 3 28 -7 45 -22 39 -32 113
-70 157 -80 37 -8 37 -8 12 -104 -24 -88 -25 -111 -6 -111 10 0 18 22 27 70 7
39 16 70 20 70 4 0 10 -31 14 -70 5 -53 11 -70 22 -70 13 0 15 9 9 53 -4 28
-10 76 -13 104 l-6 53 34 0 c50 0 155 26 227 56 l63 27 30 -29 c17 -16 55 -59
85 -95 50 -61 54 -70 54 -118 l0 -51 35 0 35 0 0 51 c0 50 2 53 71 128 101
108 97 106 163 75 30 -14 82 -30 116 -36 70 -13 69 -10 41 -135 -18 -79 -18
-83 -1 -83 14 0 19 11 24 47 4 27 10 57 13 68 l6 20 8 -20 c4 -11 8 -39 8 -63
1 -29 6 -45 16 -49 27 -10 29 6 12 90 -23 111 -23 117 11 117 15 0 51 6 79 13
36 10 55 10 65 3 21 -15 106 -153 119 -193 7 -22 17 -33 29 -33 18 0 18 2 3
37 -8 21 -35 70 -59 109 -24 39 -44 78 -44 87 0 9 13 23 28 31 63 33 135 137
187 274 16 39 29 71 30 70 2 -2 -12 -129 -31 -283 -39 -323 -39 -325 -20 -325
10 0 16 19 21 63 20 186 65 571 68 573 5 6 88 -559 87 -598 0 -40 24 -54 34
-20 3 9 57 287 121 617 64 330 119 611 124 625 l8 25 12 -25 c14 -32 292
-1145 295 -1185 2 -16 4 -40 5 -52 1 -15 7 -23 20 -23 21 0 31 26 31 80 0 64
64 590 70 583 9 -10 90 -547 90 -595 0 -47 8 -68 27 -68 20 0 17 24 -40 390
-41 257 -47 328 -24 269 46 -116 151 -311 190 -355 42 -47 45 -53 33 -75 -12
-23 -58 -102 -103 -177 -26 -43 -28 -52 -10 -52 7 0 42 48 78 107 81 136 80
136 115 123 15 -6 63 -14 106 -17 42 -3 75 -10 72 -14 -3 -5 13 -9 35 -9 48 0
48 -1 21 -90 -24 -77 -25 -100 -6 -100 16 0 18 6 36 100 7 36 16 69 20 73 9
11 30 -79 30 -129 0 -32 21 -56 37 -41 5 6 -7 85 -24 155 -5 21 -3 22 75 22
l81 0 12 -57 c11 -53 14 -72 18 -110 0 -7 10 -13 22 -13 15 0 19 5 15 18 -8
24 -36 146 -36 155 0 4 10 7 23 7 61 1 67 8 67 77 0 79 -16 145 -41 172 -19
20 -30 21 -204 21 -101 0 -195 -4 -208 -9 -30 -12 -37 -28 -44 -109 l-6 -64
-36 7 c-134 25 -182 91 -346 486 -180 432 -289 595 -435 650 -158 60 -302 -47
-395 -294 -14 -37 -57 -174 -96 -305 -134 -452 -196 -527 -449 -539 -90 -4
-114 -2 -169 16 -84 29 -163 80 -233 152 l-58 59 51 74 c117 173 186 426 160
588 -15 89 -41 148 -93 204 -70 77 -151 101 -225 69z m67 -5 c0 -5 -10 -10
-22 -9 -22 0 -22 1 -3 9 11 5 21 9 23 9 1 1 2 -3 2 -9z m-50 -10 c0 -5 -8 -10
-17 -10 -15 0 -16 2 -3 10 19 12 20 12 20 0z m93 3 c-7 -2 -19 -2 -25 0 -7 3
-2 5 12 5 14 0 19 -2 13 -5z m1267 -22 c0 -5 -15 -15 -32 -22 -18 -7 -36 -14
-40 -17 -5 -2 -8 0 -8 5 0 5 15 17 33 26 38 19 47 20 47 8z m43 2 c-7 -2 -19
-2 -25 0 -7 3 -2 5 12 5 14 0 19 -2 13 -5z m57 -3 c0 -13 -11 -13 -30 0 -12 8
-11 10 8 10 12 0 22 -4 22 -10z m-4010 -10 c12 -8 11 -10 -7 -10 -13 0 -23 5
-23 10 0 13 11 13 30 0z m4055 0 c3 -5 -1 -10 -9 -10 -8 0 -18 5 -21 10 -3 6
1 10 9 10 8 0 18 -4 21 -10z m-4096 -4 c-2 -3 -16 -7 -29 -9 -14 -3 -33 -8
-42 -12 -10 -4 -18 -4 -18 -1 0 10 41 25 69 25 13 1 22 -1 20 -3z m105 -11
c20 -8 36 -20 36 -26 0 -7 -10 -5 -25 5 -13 9 -31 16 -40 16 -8 0 -15 5 -15
10 0 13 1 13 44 -5z m2650 -15 c20 -14 46 -45 59 -70 19 -40 22 -60 22 -180 0
-109 -5 -151 -23 -220 -23 -87 -105 -265 -142 -310 -20 -25 -20 -25 -36 -5
-28 36 -93 173 -120 251 -66 199 -74 441 -16 508 53 60 186 73 256 26z m1460
-64 c22 -25 37 -49 34 -52 -3 -3 -19 13 -34 35 -16 22 -46 50 -66 63 -21 13
-38 27 -38 31 0 17 66 -32 104 -77z m-240 27 c-8 -66 -223 -1186 -229 -1192
-3 -2 -5 0 -5 6 0 6 -18 129 -41 274 -54 351 -54 388 0 554 50 150 107 274
150 326 26 32 100 79 123 79 4 0 5 -21 2 -47z m-4094 16 c-14 -12 -32 -26 -41
-33 -8 -6 -35 -37 -58 -69 -24 -32 -46 -55 -48 -53 -8 8 82 119 119 148 39 32
65 37 28 7z m3975 2 c-3 -6 -11 -11 -17 -11 -6 0 -6 6 2 15 14 17 26 13 15 -4z
m259 -12 c70 -47 138 -144 227 -323 l78 -160 -5 -70 c-6 -90 -72 -647 -76
-651 -4 -4 -278 1101 -296 1188 -8 41 -7 47 8 47 9 0 38 -14 64 -31z m-4146
-36 c-20 -101 -291 -1183 -295 -1179 -5 5 -70 553 -76 648 l-5 68 83 167 c48
95 105 194 132 228 45 56 147 130 163 120 4 -3 3 -26 -2 -52z m118 41 c71 -34
143 -144 197 -304 65 -192 78 -246 73 -311 -6 -77 -85 -601 -91 -608 -3 -2 -5
0 -5 5 0 5 -47 253 -105 552 -58 298 -108 566 -111 595 -3 28 -7 60 -10 70 -7
21 8 22 52 1z m92 -13 c3 -8 -1 -12 -9 -9 -7 2 -15 10 -17 17 -3 8 1 12 9 9 7
-2 15 -10 17 -17z m3642 -16 c-7 -8 -17 -15 -22 -15 -6 0 -5 7 2 15 7 8 17 15
22 15 6 0 5 -7 -2 -15z m-3576 -77 c-3 -5 -1 -8 4 -8 5 0 21 -27 36 -61 29
-68 29 -69 17 -69 -8 0 -27 40 -33 70 -2 8 -5 17 -9 20 -13 13 -50 80 -43 80
5 0 -2 7 -14 16 -12 8 -20 20 -16 25 3 6 19 -7 34 -28 16 -21 26 -41 24 -45z
m3535 12 c-12 -22 -25 -40 -30 -40 -13 0 -11 17 4 32 7 7 16 21 20 31 3 9 11
17 17 17 5 0 0 -18 -11 -40z m496 -21 c11 -17 -1 -21 -15 -4 -8 9 -8 15 -2 15
6 0 14 -5 17 -11z m-525 -38 c0 -5 -6 -16 -12 -23 -7 -7 -14 -20 -15 -28 -4
-33 -56 -170 -64 -170 -11 0 -12 24 -2 34 4 3 8 17 10 29 2 12 8 24 13 25 6 2
8 7 5 12 -7 11 45 130 56 130 5 0 9 -4 9 -9z m568 -31 c12 -22 19 -40 15 -40
-4 0 -18 18 -31 40 -12 22 -19 40 -15 40 4 0 18 -18 31 -40z m-4610 -20 c-13
-22 -27 -40 -31 -40 -4 0 3 18 15 40 13 22 27 40 31 40 4 0 -3 -18 -15 -40z
m2729 -27 c-2 -16 -4 -5 -4 22 0 28 2 40 4 28 2 -13 2 -35 0 -50z m430 -25
c-3 -7 -5 -2 -5 12 0 14 2 19 5 13 2 -7 2 -19 0 -25z m1497 -14 c24 -50 13
-54 -13 -4 -11 22 -17 40 -13 40 5 0 16 -16 26 -36z m-4705 -24 c-12 -23 -23
-39 -26 -37 -6 7 29 77 39 77 4 0 -2 -18 -13 -40z m665 24 c4 -9 4 -19 2 -21
-8 -8 -26 8 -26 23 0 19 16 18 24 -2z m2126 -14 c0 -11 -4 -20 -10 -20 -5 0
-10 9 -10 20 0 11 5 20 10 20 6 0 10 -9 10 -20z m420 -4 c0 -8 -4 -18 -10 -21
-5 -3 -10 3 -10 14 0 12 5 21 10 21 6 0 10 -6 10 -14z m-2527 -37 c3 -13 1
-19 -6 -16 -15 5 -22 37 -9 37 5 0 12 -9 15 -21z m2115 -12 c5 -24 -15 -21
-21 4 -3 13 -1 19 6 16 7 -2 13 -11 15 -20z m402 -7 c0 -11 -4 -20 -9 -20 -5
0 -7 9 -4 20 3 11 7 20 9 20 2 0 4 -9 4 -20z m1544 -19 c-6 -6 -24 19 -24 34
1 6 7 1 15 -9 8 -11 12 -22 9 -25z m-4800 -50 c-15 -33 -31 -61 -36 -61 -6 0
-3 11 6 25 9 14 14 25 11 25 -2 0 5 18 16 40 32 61 33 42 3 -29z m753 44 c8
-22 -6 -33 -17 -15 -13 20 -12 30 0 30 6 0 13 -7 17 -15z m2107 -11 c9 -22 -3
-32 -14 -14 -12 19 -12 30 -1 30 5 0 12 -7 15 -16z m386 -14 c0 -11 -4 -20 -9
-20 -5 0 -7 9 -4 20 3 11 7 20 9 20 2 0 4 -9 4 -20z m1583 -20 c19 -49 7 -53
-16 -5 -19 41 -20 45 -9 45 5 0 16 -18 25 -40z m-773 10 c0 -11 -6 -20 -14
-20 -9 0 -12 7 -9 20 3 11 9 20 14 20 5 0 9 -9 9 -20z m-3286 -16 c4 -9 4 -19
2 -21 -8 -8 -26 8 -26 23 0 19 16 18 24 -2z m2104 -17 c5 -24 -15 -21 -21 4
-3 13 -1 19 6 16 7 -2 13 -11 15 -20z m358 -24 c-11 -11 -17 4 -9 23 7 18 8
18 11 1 2 -10 1 -21 -2 -24z m814 20 c0 -5 -4 -15 -10 -23 -11 -18 -25 -7 -17
15 6 15 27 21 27 8z m-3263 -28 c8 -22 -6 -33 -17 -15 -13 20 -12 30 0 30 6 0
13 -7 17 -15z m2106 -15 c3 -13 0 -20 -9 -20 -8 0 -14 9 -14 20 0 11 4 20 9
20 5 0 11 -9 14 -20z m1970 0 c3 -11 1 -20 -4 -20 -5 0 -9 2 -9 4 0 2 -3 11
-6 20 -3 9 -2 16 4 16 5 0 12 -9 15 -20z m-1648 -44 c-9 -21 -18 -36 -21 -33
-3 2 0 15 5 28 5 13 13 33 16 44 4 11 9 15 11 9 3 -6 -3 -27 -11 -48z m-3249
28 c-3 -9 -6 -18 -6 -20 0 -2 -4 -4 -9 -4 -5 0 -7 9 -4 20 3 11 10 20 15 20 6
0 7 -7 4 -16z m4064 -4 c0 -11 -6 -20 -14 -20 -9 0 -12 7 -9 20 3 11 9 20 14
20 5 0 9 -9 9 -20z m-3227 -21 c3 -13 1 -19 -6 -16 -15 5 -22 37 -9 37 5 0 12
-9 15 -21z m2105 -12 c5 -24 -15 -21 -21 4 -3 13 -1 19 6 16 7 -2 13 -11 15
-20z m1976 7 c9 -22 -3 -32 -14 -14 -12 19 -12 30 -1 30 5 0 12 -7 15 -16z
m-4934 -11 c0 -14 -19 -38 -25 -32 -8 8 5 39 16 39 5 0 9 -3 9 -7z m4070 0 c0
-14 -19 -38 -25 -32 -8 8 5 39 16 39 5 0 9 -3 9 -7z m-3203 -28 c8 -22 -6 -33
-17 -15 -13 20 -12 30 0 30 6 0 13 -7 17 -15z m2107 -11 c9 -22 -3 -32 -14
-14 -12 19 -12 30 -1 30 5 0 12 -7 15 -16z m1980 0 c9 -22 -3 -32 -14 -14 -12
19 -12 30 -1 30 5 0 12 -7 15 -16z m-1718 -20 c-4 -9 -9 -15 -11 -12 -3 3 -3
13 1 22 4 9 9 15 11 12 3 -3 3 -13 -1 -22z m-3256 11 c0 -12 -35 -75 -41 -75
-4 0 0 18 8 40 9 22 20 40 25 40 4 0 8 -2 8 -5z m4070 -15 c0 -11 -4 -20 -10
-20 -5 0 -10 9 -10 20 0 11 5 20 10 20 6 0 10 -9 10 -20z m-3170 -21 c0 -11
-4 -17 -10 -14 -5 3 -10 13 -10 21 0 8 5 14 10 14 6 0 10 -9 10 -21z m2125
-26 c21 -50 12 -53 -14 -3 -11 22 -16 40 -11 40 5 0 17 -16 25 -37z m1978 -3
c8 -22 11 -40 6 -40 -5 0 -9 2 -9 4 0 2 -7 20 -15 40 -8 20 -11 36 -7 36 5 0
16 -18 25 -40z m-1779 -14 c-10 -20 -21 -36 -26 -36 -4 0 2 18 13 40 26 50 37
46 13 -4z m836 27 c0 -14 -19 -38 -25 -32 -8 8 5 39 16 39 5 0 9 -3 9 -7z
m-3138 -54 c5 -19 13 -43 17 -54 5 -11 17 -40 26 -65 10 -25 19 -51 22 -57 3
-7 1 -13 -4 -13 -7 0 -34 57 -38 80 0 3 -7 16 -15 30 -7 14 -12 25 -11 25 3 0
-7 31 -20 63 -12 30 -11 34 3 30 7 -3 16 -20 20 -39z m-966 5 c-3 -9 -6 -18
-6 -20 0 -2 -4 -4 -9 -4 -5 0 -7 9 -4 20 3 11 10 20 15 20 6 0 7 -7 4 -16z
m4084 -8 c0 -8 -4 -18 -10 -21 -5 -3 -10 3 -10 14 0 12 5 21 10 21 6 0 10 -6
10 -14z m-963 -46 c12 -22 17 -40 12 -40 -5 0 -14 11 -19 24 -5 13 -14 27 -19
31 -13 7 -15 25 -3 25 4 0 17 -18 29 -40z m1956 20 c3 -11 1 -20 -4 -20 -5 0
-9 2 -9 4 0 2 -3 11 -6 20 -3 9 -2 16 4 16 5 0 12 -9 15 -20z m-1865 -33 c-13
-20 -26 -36 -31 -37 -4 0 5 18 19 40 15 22 29 39 31 36 2 -2 -7 -20 -19 -39z
m-3228 26 c0 -14 -19 -38 -25 -32 -8 8 5 39 16 39 5 0 9 -3 9 -7z m4083 -23
c-3 -11 -9 -20 -14 -20 -10 0 -12 24 -2 33 13 13 21 7 16 -13z m1031 -16 c8
-21 8 -24 -3 -24 -5 0 -11 9 -14 20 -6 24 8 27 17 4z m-5151 -44 c-9 -22 -20
-40 -25 -40 -5 0 -8 3 -6 8 3 4 10 22 17 40 7 17 17 32 21 32 5 0 1 -18 -7
-40z m2057 21 c0 -5 -28 -12 -62 -16 -64 -8 -171 -39 -192 -56 -50 -42 -109
-80 -114 -74 -4 4 -2 10 5 12 6 2 31 19 55 37 34 26 153 93 153 86 0 -1 7 1
15 4 40 14 140 19 140 7z m48 -8 c2 -8 -5 -13 -17 -13 -12 0 -21 6 -21 16 0
18 31 15 38 -3z m1987 -20 c-18 -41 -23 -49 -30 -41 -8 8 24 78 35 78 6 0 4
-16 -5 -37z m-1937 9 c3 -9 -2 -13 -14 -10 -9 1 -19 9 -22 16 -3 9 2 13 14 10
9 -1 19 -9 22 -16z m52 -17 c0 -8 -8 -11 -20 -8 -11 3 -20 11 -20 18 0 8 8 11
20 8 11 -3 20 -11 20 -18z m2975 -12 c21 -50 12 -53 -14 -3 -11 22 -16 40 -11
40 5 0 17 -16 25 -37z m-2885 -34 c0 -14 -17 -11 -34 6 -8 8 -22 15 -30 15 -9
0 -16 7 -16 15 0 12 7 11 40 -6 22 -12 40 -25 40 -30z m-135 16 c49 -14 125
-56 176 -100 33 -27 32 -29 -70 -150 -103 -123 -102 -122 -124 -67 -17 43 -82
262 -92 309 -6 33 -6 33 27 27 18 -3 56 -12 83 -19z m-185 -4 c0 -18 -116
-321 -133 -348 -19 -29 -47 -11 -110 70 -100 128 -100 114 -1 187 125 92 244
137 244 91z m1202 -3 c-7 -7 -12 -8 -12 -2 0 14 12 26 19 19 2 -3 -1 -11 -7
-17z m88 -10 l23 -33 -26 24 c-15 14 -27 28 -27 33 0 14 5 9 30 -24z m-3304
-14 c-4 -9 -9 -15 -11 -12 -3 3 -3 13 1 22 4 9 9 15 11 12 3 -3 3 -13 -1 -22z
m3189 -3 c-3 -6 -11 -11 -17 -11 -6 0 -6 6 2 15 14 17 26 13 15 -4z m188 -109
c39 -29 32 -45 -60 -139 l-76 -77 -69 74 c-38 41 -75 87 -83 101 -14 26 -13
27 38 62 29 20 67 52 86 71 l34 35 51 -53 c28 -29 64 -62 79 -74z m717 107
c-7 -11 -14 -18 -17 -15 -8 8 5 36 17 36 7 0 7 -6 0 -21z m-1682 -33 c31 -25
71 -56 87 -70 48 -41 49 -42 68 -49 9 -3 17 -11 17 -17 0 -14 -52 16 -95 56
-19 17 -37 29 -39 27 -3 -3 -11 4 -18 16 -7 12 -19 21 -26 21 -7 0 -15 7 -18
15 -3 8 -14 17 -25 20 -17 6 -27 25 -13 25 3 0 31 -20 62 -44z m-1271 17 c4
-10 13 -24 20 -31 14 -15 17 -32 6 -32 -5 0 -18 18 -31 40 -12 22 -18 40 -12
40 6 0 14 -8 17 -17z m4131 -23 c12 -22 19 -40 15 -40 -4 0 -18 18 -31 40 -12
22 -19 40 -15 40 4 0 18 -18 31 -40z m-5309 -17 c-13 -21 -28 -43 -34 -49 -5
-7 -19 -24 -29 -38 -10 -14 -25 -26 -32 -26 -8 0 -14 -4 -14 -9 0 -5 -9 -11
-20 -14 -32 -8 -23 6 18 28 23 13 52 43 77 82 43 66 72 88 34 26z m3191 33 c0
-2 -8 -10 -17 -17 -16 -13 -17 -12 -4 4 13 16 21 21 21 13z m220 -26 c19 -17
30 -30 25 -30 -6 1 -26 14 -45 30 -19 17 -30 30 -25 30 6 -1 26 -14 45 -30z
m2210 11 c5 -11 10 -45 10 -75 0 -56 0 -56 -30 -56 l-30 0 0 63 c0 78 25 113
50 68z m-1527 -22 c-33 -57 -123 -122 -123 -89 0 6 5 10 10 10 20 0 25 3 38
22 7 10 18 16 23 13 5 -4 9 1 9 9 0 8 6 19 13 23 8 4 16 16 20 26 3 9 11 17
17 17 7 0 4 -13 -7 -31z m-4385 9 c7 -7 12 -39 12 -75 l0 -63 -30 0 c-30 0
-30 0 -30 56 0 77 19 111 48 82z m2034 -20 c-6 -6 -15 -8 -19 -4 -4 4 -1 11 7
16 19 12 27 3 12 -12z m1408 18 c0 -2 -8 -10 -17 -17 -16 -13 -17 -12 -4 4 13
16 21 21 21 13z m-1440 -33 c0 -5 -15 -17 -33 -28 -45 -27 -47 -28 -47 -16 0
7 11 16 24 21 13 5 27 14 31 19 7 13 25 15 25 4z m1400 3 c0 -6 -66 -46 -76
-46 -5 0 9 11 31 25 43 26 45 27 45 21z m-1875 -17 c11 -17 -1 -21 -15 -4 -8
9 -8 15 -2 15 6 0 14 -5 17 -11z m2240 1 c3 -5 2 -10 -4 -10 -5 0 -13 5 -16
10 -3 6 -2 10 4 10 5 0 13 -4 16 -10z m1923 -53 c2 -4 7 -5 11 -3 10 7 37 -12
29 -20 -13 -12 -107 59 -108 80 0 10 62 -42 68 -57z m-1888 28 c11 -13 10 -14
-4 -9 -9 3 -16 10 -16 15 0 13 6 11 20 -6z m-2220 -32 c0 9 74 -21 78 -32 5
-15 -73 13 -103 37 -14 11 -21 23 -17 26 4 4 15 -2 24 -14 10 -12 18 -20 18
-17z m330 17 c0 -10 -35 -27 -69 -34 -9 -1 -27 -6 -41 -9 -50 -12 -130 -17
-130 -9 0 5 33 14 73 20 40 6 90 17 112 25 51 19 55 19 55 7z m1395 0 c-3 -5
-14 -10 -23 -10 -15 0 -15 2 -2 10 20 13 33 13 25 0z m545 -10 c13 -8 13 -10
-2 -10 -9 0 -20 5 -23 10 -8 13 5 13 25 0z m-595 -10 c-3 -5 -14 -10 -23 -10
-15 0 -15 2 -2 10 20 13 33 13 25 0z m990 0 c-3 -5 -12 -10 -18 -10 -7 0 -6 4
3 10 19 12 23 12 15 0z m-1035 -10 c0 -5 -10 -10 -22 -9 -22 0 -22 1 -3 9 11
5 21 9 23 9 1 1 2 -3 2 -9z m695 0 c3 -5 -1 -10 -9 -10 -8 0 -18 5 -21 10 -3
6 1 10 9 10 8 0 18 -4 21 -10z m305 2 c0 -10 -77 -31 -85 -23 -3 3 13 10 37
17 24 6 44 12 46 13 1 0 2 -3 2 -7z m-1255 -12 c3 -5 -3 -10 -14 -10 -12 0
-21 5 -21 10 0 6 6 10 14 10 8 0 18 -4 21 -10z m1005 -6 c0 -2 -9 -4 -20 -4
-11 0 -20 4 -20 9 0 5 9 7 20 4 11 -3 20 -7 20 -9z m1810 6 c0 -5 -7 -7 -15
-4 -8 4 -15 8 -15 10 0 2 7 4 15 4 8 0 15 -4 15 -10z m-2770 -10 c12 -8 11
-10 -7 -10 -13 0 -23 5 -23 10 0 13 11 13 30 0z m110 0 c0 -5 -9 -10 -21 -10
-11 0 -17 5 -14 10 3 6 13 10 21 10 8 0 14 -4 14 -10z m43 3 c-7 -2 -19 -2
-25 0 -7 3 -2 5 12 5 14 0 19 -2 13 -5z m847 -3 c12 -8 11 -10 -7 -10 -13 0
-23 5 -23 10 0 13 11 13 30 0z m110 0 c0 -5 -10 -10 -22 -10 -19 0 -20 2 -8
10 19 13 30 13 30 0z m1710 0 c0 -13 -11 -13 -30 0 -12 8 -11 10 8 10 12 0 22
-4 22 -10z m-5690 -4 c0 -2 -7 -6 -15 -10 -8 -3 -15 -1 -15 4 0 6 7 10 15 10
8 0 15 -2 15 -4z m2923 -3 c-7 -2 -19 -2 -25 0 -7 3 -2 5 12 5 14 0 19 -2 13
-5z m1000 0 c-7 -2 -19 -2 -25 0 -7 3 -2 5 12 5 14 0 19 -2 13 -5z m1810 0
c-7 -2 -19 -2 -25 0 -7 3 -2 5 12 5 14 0 19 -2 13 -5z m44 1 c-3 -3 -12 -4
-19 -1 -8 3 -5 6 6 6 11 1 17 -2 13 -5z m-5827 -14 c-19 -13 -30 -13 -30 0 0
6 10 10 23 10 18 0 19 -2 7 -10z m-93 -6 c-3 -3 -12 -4 -19 -1 -8 3 -5 6 6 6
11 1 17 -2 13 -5z m46 -1 c-7 -2 -19 -2 -25 0 -7 3 -2 5 12 5 14 0 19 -2 13
-5z"/>
</g>
</svg>
